<svg width="236" height="44" viewBox="0 0 236 44" fill="none" xmlns="http://www.w3.org/2000/svg">
<path d="M8.24189 42.4249L1.99995 36.7427L18.0725 22.1118L1.99995 7.49154L8.24189 1.79877L30.5564 22.1118L8.24189 42.4249Z" stroke="#0E278B" stroke-width="2" stroke-miterlimit="10"/>
<path opacity="0.94" d="M30.8837 22.1118L14.8112 7.49154L21.0649 1.79877L43.3677 22.1118L21.0649 42.4249L14.8112 36.7427L30.8837 22.1118Z" stroke="#0E278B" stroke-width="2" stroke-miterlimit="10"/>
<path opacity="0.88" d="M43.6948 22.1118L27.6223 7.49154L33.8759 1.79877L56.1904 22.1118L33.8759 42.4249L27.6223 36.7427L43.6948 22.1118Z" stroke="#0E278B" stroke-width="2" stroke-miterlimit="10"/>
<path opacity="0.81" d="M56.5063 22.1118L40.4338 7.49154L46.6874 1.79877L69.002 22.1118L46.6874 42.4249L40.4338 36.7427L56.5063 22.1118Z" stroke="#0E278B" stroke-width="2" stroke-miterlimit="10"/>
<path opacity="0.75" d="M69.3176 22.1118L53.2568 7.49154L59.4988 1.79877L81.8132 22.1118L59.4988 42.4249L53.2568 36.7427L69.3176 22.1118Z" stroke="#0E278B" stroke-width="2" stroke-miterlimit="10"/>
<path opacity="0.69" d="M82.1289 22.1118L66.0681 7.49154L72.31 1.79877L94.6245 22.1118L72.31 42.4249L66.0681 36.7427L82.1289 22.1118Z" stroke="#0E278B" stroke-width="2" stroke-miterlimit="10"/>
<path opacity="0.63" d="M94.94 22.1118L78.8791 7.49154L85.1211 1.79877L107.436 22.1118L85.1211 42.4249L78.8791 36.7427L94.94 22.1118Z" stroke="#0E278B" stroke-width="2" stroke-miterlimit="10"/>
<path opacity="0.56" d="M107.763 22.1118L91.6904 7.49154L97.9324 1.79877L120.247 22.1118L97.9324 42.4249L91.6904 36.7427L107.763 22.1118Z" stroke="#0E278B" stroke-width="2" stroke-miterlimit="10"/>
<path opacity="0.5" d="M120.574 22.1118L104.502 7.49154L110.744 1.79877L133.058 22.1118L110.744 42.4249L104.502 36.7427L120.574 22.1118Z" stroke="#0E278B" stroke-width="2" stroke-miterlimit="10"/>
<path opacity="0.44" d="M133.385 22.1118L117.313 7.49154L123.555 1.79877L145.881 22.1118L123.555 42.4249L117.313 36.7427L133.385 22.1118Z" stroke="#0E278B" stroke-width="2" stroke-miterlimit="10"/>
<path opacity="0.38" d="M146.197 22.1118L130.124 7.49154L136.378 1.79877L158.692 22.1118L136.378 42.4249L130.124 36.7427L146.197 22.1118Z" stroke="#0E278B" stroke-width="2" stroke-miterlimit="10"/>
<path opacity="0.31" d="M159.008 22.1118L142.947 7.49154L149.189 1.79877L171.503 22.1118L149.189 42.4249L142.947 36.7427L159.008 22.1118Z" stroke="#0E278B" stroke-width="2" stroke-miterlimit="10"/>
<path opacity="0.25" d="M171.819 22.1118L155.758 7.49154L162 1.79877L184.315 22.1118L162 42.4249L155.758 36.7427L171.819 22.1118Z" stroke="#0E278B" stroke-width="2" stroke-miterlimit="10"/>
<path opacity="0.19" d="M184.63 22.1118L168.57 7.49154L174.811 1.79877L197.126 22.1118L174.811 42.4249L168.57 36.7427L184.63 22.1118Z" stroke="#0E278B" stroke-width="2" stroke-miterlimit="10"/>
<path opacity="0.13" d="M197.453 22.1118L181.381 7.49154L187.623 1.79877L209.937 22.1118L187.623 42.4249L181.381 36.7427L197.453 22.1118Z" stroke="#0E278B" stroke-width="2" stroke-miterlimit="10"/>
<path opacity="0.06" d="M210.265 22.1118L194.192 7.49154L200.434 1.79877L222.749 22.1118L200.434 42.4249L194.192 36.7427L210.265 22.1118Z" stroke="#0E278B" stroke-width="2" stroke-miterlimit="10"/>
</svg>
