<svg width="236" height="45" viewBox="0 0 236 45" fill="none" xmlns="http://www.w3.org/2000/svg">
    <path d="M227.318 42.6923L233.56 37.0009L217.487 22.3461L233.56 7.70204L227.318 2L205.003 22.3461L227.318 42.6923Z" stroke="#0E278B" stroke-width="2" stroke-miterlimit="10"/>
    <path opacity="0.94" d="M204.676 22.3461L220.749 7.70204L214.495 2L192.192 22.3461L214.495 42.6923L220.749 37.0009L204.676 22.3461Z" stroke="#0E278B" stroke-width="2" stroke-miterlimit="10"/>
    <path opacity="0.88" d="M191.865 22.3461L207.937 7.70204L201.684 2L179.369 22.3461L201.684 42.6923L207.937 37.0009L191.865 22.3461Z" stroke="#0E278B" stroke-width="2" stroke-miterlimit="10"/>
    <path opacity="0.81" d="M179.053 22.3461L195.126 7.70204L188.872 2L166.558 22.3461L188.872 42.6923L195.126 37.0009L179.053 22.3461Z" stroke="#0E278B" stroke-width="2" stroke-miterlimit="10"/>
    <path opacity="0.75" d="M166.242 22.3461L182.303 7.70204L176.061 2L153.747 22.3461L176.061 42.6923L182.303 37.0009L166.242 22.3461Z" stroke="#0E278B" stroke-width="2" stroke-miterlimit="10"/>
    <path opacity="0.69" d="M153.431 22.3461L169.492 7.70204L163.25 2L140.935 22.3461L163.25 42.6923L169.492 37.0009L153.431 22.3461Z" stroke="#0E278B" stroke-width="2" stroke-miterlimit="10"/>
    <path opacity="0.63" d="M140.62 22.3461L156.681 7.70204L150.439 2L128.124 22.3461L150.439 42.6923L156.681 37.0009L140.62 22.3461Z" stroke="#0E278B" stroke-width="2" stroke-miterlimit="10"/>
    <path opacity="0.56" d="M127.797 22.3461L143.869 7.70204L137.627 2L115.313 22.3461L137.627 42.6923L143.869 37.0009L127.797 22.3461Z" stroke="#0E278B" stroke-width="2" stroke-miterlimit="10"/>
    <path opacity="0.5" d="M114.985 22.3461L131.058 7.70204L124.816 2L102.501 22.3461L124.816 42.6923L131.058 37.0009L114.985 22.3461Z" stroke="#0E278B" stroke-width="2" stroke-miterlimit="10"/>
    <path opacity="0.44" d="M102.175 22.3461L118.247 7.70204L112.005 2L89.679 22.3461L112.005 42.6923L118.247 37.0009L102.175 22.3461Z" stroke="#0E278B" stroke-width="2" stroke-miterlimit="10"/>
    <path opacity="0.38" d="M89.3631 22.3461L105.436 7.70204L99.1819 2L76.8674 22.3461L99.1819 42.6923L105.436 37.0009L89.3631 22.3461Z" stroke="#0E278B" stroke-width="2" stroke-miterlimit="10"/>
    <path opacity="0.31" d="M76.552 22.3461L92.6129 7.70204L86.3709 2L64.0564 22.3461L86.3709 42.6923L92.6129 37.0009L76.552 22.3461Z" stroke="#0E278B" stroke-width="2" stroke-miterlimit="10"/>
    <path opacity="0.25" d="M63.7407 22.3461L79.8015 7.70204L73.5595 2L51.2451 22.3461L73.5595 42.6923L79.8015 37.0009L63.7407 22.3461Z" stroke="#0E278B" stroke-width="2" stroke-miterlimit="10"/>
    <path opacity="0.19" d="M50.9295 22.3461L66.9902 7.70204L60.7483 2L38.4338 22.3461L60.7483 42.6923L66.9902 37.0009L50.9295 22.3461Z" stroke="#0E278B" stroke-width="2" stroke-miterlimit="10"/>
    <path opacity="0.13" d="M38.1065 22.3461L54.179 7.70204L47.937 2L25.6226 22.3461L47.937 42.6923L54.179 37.0009L38.1065 22.3461Z" stroke="#0E278B" stroke-width="2" stroke-miterlimit="10"/>
    <path opacity="0.06" d="M25.2952 22.3461L41.3677 7.70204L35.1257 2L12.8113 22.3461L35.1257 42.6923L41.3677 37.0009L25.2952 22.3461Z" stroke="#0E278B" stroke-width="2" stroke-miterlimit="10"/>
</svg>
