<svg width="236" height="44" viewBox="0 0 236 44" fill="none" xmlns="http://www.w3.org/2000/svg">
<path d="M227.318 42.0684L233.56 36.3862L217.487 21.7553L233.56 7.13494L227.318 1.44215L205.003 21.7553L227.318 42.0684Z" stroke="white" stroke-width="2" stroke-miterlimit="10"/>
<path opacity="0.94" d="M204.676 21.7553L220.749 7.13494L214.495 1.44215L192.192 21.7553L214.495 42.0684L220.749 36.3862L204.676 21.7553Z" stroke="white" stroke-width="2" stroke-miterlimit="10"/>
<path opacity="0.88" d="M191.865 21.7553L207.937 7.13494L201.684 1.44215L179.369 21.7553L201.684 42.0684L207.937 36.3862L191.865 21.7553Z" stroke="white" stroke-width="2" stroke-miterlimit="10"/>
<path opacity="0.81" d="M179.053 21.7553L195.126 7.13494L188.872 1.44215L166.558 21.7553L188.872 42.0684L195.126 36.3862L179.053 21.7553Z" stroke="white" stroke-width="2" stroke-miterlimit="10"/>
<path opacity="0.75" d="M166.242 21.7553L182.303 7.13494L176.061 1.44215L153.747 21.7553L176.061 42.0684L182.303 36.3862L166.242 21.7553Z" stroke="white" stroke-width="2" stroke-miterlimit="10"/>
<path opacity="0.69" d="M153.431 21.7553L169.492 7.13494L163.25 1.44215L140.935 21.7553L163.25 42.0684L169.492 36.3862L153.431 21.7553Z" stroke="white" stroke-width="2" stroke-miterlimit="10"/>
<path opacity="0.63" d="M140.62 21.7553L156.681 7.13494L150.439 1.44215L128.124 21.7553L150.439 42.0684L156.681 36.3862L140.62 21.7553Z" stroke="white" stroke-width="2" stroke-miterlimit="10"/>
<path opacity="0.56" d="M127.797 21.7553L143.869 7.13494L137.627 1.44215L115.313 21.7553L137.627 42.0684L143.869 36.3862L127.797 21.7553Z" stroke="white" stroke-width="2" stroke-miterlimit="10"/>
<path opacity="0.5" d="M114.985 21.7553L131.058 7.13494L124.816 1.44215L102.501 21.7553L124.816 42.0684L131.058 36.3862L114.985 21.7553Z" stroke="white" stroke-width="2" stroke-miterlimit="10"/>
<path opacity="0.44" d="M102.175 21.7553L118.247 7.13494L112.005 1.44215L89.679 21.7553L112.005 42.0684L118.247 36.3862L102.175 21.7553Z" stroke="white" stroke-width="2" stroke-miterlimit="10"/>
<path opacity="0.38" d="M89.3631 21.7553L105.436 7.13494L99.1819 1.44215L76.8674 21.7553L99.1819 42.0684L105.436 36.3862L89.3631 21.7553Z" stroke="white" stroke-width="2" stroke-miterlimit="10"/>
<path opacity="0.31" d="M76.552 21.7553L92.6129 7.13494L86.3709 1.44215L64.0564 21.7553L86.3709 42.0684L92.6129 36.3862L76.552 21.7553Z" stroke="white" stroke-width="2" stroke-miterlimit="10"/>
<path opacity="0.25" d="M63.7407 21.7553L79.8015 7.13494L73.5595 1.44215L51.2451 21.7553L73.5595 42.0684L79.8015 36.3862L63.7407 21.7553Z" stroke="white" stroke-width="2" stroke-miterlimit="10"/>
<path opacity="0.19" d="M50.9295 21.7553L66.9902 7.13494L60.7483 1.44215L38.4338 21.7553L60.7483 42.0684L66.9902 36.3862L50.9295 21.7553Z" stroke="white" stroke-width="2" stroke-miterlimit="10"/>
<path opacity="0.13" d="M38.1065 21.7553L54.179 7.13494L47.937 1.44215L25.6226 21.7553L47.937 42.0684L54.179 36.3862L38.1065 21.7553Z" stroke="white" stroke-width="2" stroke-miterlimit="10"/>
<path opacity="0.06" d="M25.2952 21.7553L41.3677 7.13494L35.1257 1.44215L12.8113 21.7553L35.1257 42.0684L41.3677 36.3862L25.2952 21.7553Z" stroke="white" stroke-width="2" stroke-miterlimit="10"/>
</svg>
