<svg width="218" height="121" viewBox="0 0 218 121" fill="none" xmlns="http://www.w3.org/2000/svg">
<path d="M0.829351 75.322L5.98968 82.4153L8.45065 82.8705L1.43261 73.2236C1.2747 73.9311 1.05202 74.6265 0.829351 75.322Z" fill="white"/>
<path d="M3.25137 68.0965L14.8621 84.0564L17.3231 84.5116L4.00944 66.2109C3.73516 66.8354 3.52565 67.472 3.25137 68.0965Z" fill="white"/>
<path d="M6.08625 61.4384L23.7346 85.6975L26.1956 86.1527L6.94753 59.6947C6.68641 60.2603 6.34737 60.8729 6.08625 61.4384Z" fill="white"/>
<path d="M9.2824 55.2769L32.6071 87.3387L35.1328 87.8059L10.26 53.6161C9.93416 54.1697 9.60828 54.7233 9.2824 55.2769Z" fill="white"/>
<path d="M12.7881 49.541L38.7445 85.2203C38.9672 84.5249 39.1251 83.8174 39.3478 83.122L13.8042 48.0101C13.4914 48.5048 13.114 48.9874 12.7881 49.541Z" fill="white"/>
<path d="M16.6166 44.1717L41.283 78.0777C41.5572 77.4532 41.8315 76.8287 42.1058 76.2041L17.6843 42.7118C17.3068 43.1944 16.9293 43.6771 16.6166 44.1717Z" fill="white"/>
<path d="M20.6384 39.1452L44.3243 71.7034C44.6502 71.1498 44.976 70.5962 45.3019 70.0426L21.8093 37.8271C21.4318 38.3097 21.0027 38.7215 20.6384 39.1452Z" fill="white"/>
<path d="M24.9049 34.5322L47.8684 66.0974C48.2459 65.6147 48.5586 65.1201 48.9361 64.6374L26.2054 33.238C25.7763 33.6498 25.3472 34.0615 24.9049 34.5322Z" fill="white"/>
<path d="M29.4559 30.156L51.9034 61.0119C52.2677 60.5882 52.7099 60.1175 53.0743 59.6937L30.7948 28.9917C30.3009 29.3915 29.885 29.7443 29.4559 30.156Z" fill="white"/>
<path d="M34.2001 26.1225L56.2863 56.4818C56.7154 56.0701 57.1445 55.6583 57.5604 55.3056L35.5258 25.0172C35.1099 25.3699 34.6292 25.7107 34.2001 26.1225Z" fill="white"/>
<path d="M39.1508 22.3727L61.0306 52.4483C61.5113 52.1075 61.9272 51.7547 62.4079 51.4139L40.5797 21.4092C40.1122 21.6911 39.6315 22.0319 39.1508 22.3727Z" fill="white"/>
<path d="M44.321 18.8477L66.0975 48.7814C66.5782 48.4406 67.0458 48.1588 67.5912 47.83L45.8015 17.9552C45.3339 18.237 44.7885 18.5658 44.321 18.8477Z" fill="white"/>
<path d="M49.6843 15.6653L71.4609 45.5991C71.9932 45.3292 72.5255 45.0593 73.0578 44.7895L51.2296 14.7848C50.6842 15.1136 50.2166 15.3955 49.6843 15.6653Z" fill="white"/>
<path d="M55.2542 12.7668L77.1856 42.9133C77.7048 42.7024 78.3018 42.4445 78.8209 42.2336L56.8379 12.0161C56.3188 12.227 55.7865 12.4969 55.2542 12.7668Z" fill="white"/>
<path d="M61.0305 10.1519L83.2199 40.6531C83.8038 40.4542 84.3877 40.2552 84.9584 40.1153L62.7174 9.54311C62.1466 9.6831 61.5628 9.88203 61.0305 10.1519Z" fill="white"/>
<path d="M67.0132 7.82078L89.5638 38.8185C90.1993 38.6905 90.7701 38.5505 91.4056 38.4225L68.7001 7.21199C68.181 7.4229 67.5971 7.62184 67.0132 7.82078Z" fill="white"/>
<path d="M73.267 5.78537L96.3853 37.5634C97.0076 37.4943 97.7079 37.3783 98.3303 37.3092L75.0572 5.31845C74.4217 5.44646 73.8509 5.58643 73.267 5.78537Z" fill="white"/>
<path d="M79.6494 4.08065L103.49 36.8517C104.177 36.7946 104.916 36.8085 105.59 36.8104L81.4911 3.68467C80.9336 3.76569 80.2981 3.89369 79.6494 4.08065Z" fill="white"/>
<path d="M86.3677 2.68363L111.24 36.8734C111.979 36.8872 112.769 36.972 113.495 37.0448L88.261 2.35859C87.6387 2.42764 87.0032 2.55563 86.3677 2.68363Z" fill="white"/>
<path d="M93.344 1.64129L119.61 37.7462C120.193 37.854 120.776 37.9618 121.359 38.0696C121.618 38.1176 121.812 38.1535 122.071 38.2014L95.3405 1.45809C94.6534 1.51516 93.9663 1.57224 93.344 1.64129ZM177.287 114.1L176.719 113.319C176.666 113.555 176.627 113.732 176.574 113.968L177.287 114.1Z" fill="white"/>
<path d="M100.552 1.0715L128.779 39.8719C129.724 40.1695 130.682 40.4081 131.55 40.7527L102.652 1.03018C101.926 0.957358 101.239 1.01443 100.552 1.0715ZM177.647 107.045L183.633 115.274L186.094 115.729L177.838 104.38C177.848 105.241 177.78 106.149 177.647 107.045Z" fill="white"/>
<path d="M108.148 0.880337L139.367 43.7948C140.532 44.3172 141.619 44.8865 142.706 45.4559L110.35 0.980873C109.56 0.896077 108.821 0.882218 108.148 0.880337ZM177.799 96.6989L192.57 116.927L195.031 117.382L177.435 93.1938C177.586 94.3269 177.725 95.5189 177.799 96.6989Z" fill="white"/>
<path d="M116.04 1.17374L153.091 52.1037C155.159 53.714 157.136 55.4302 158.957 57.2404L118.346 1.41614C117.555 1.33135 116.83 1.25854 116.04 1.17374ZM174.764 81.8955L201.443 118.568L203.904 119.023L171.858 74.9737C172.978 77.2067 173.943 79.5336 174.764 81.8955Z" fill="white"/>
<path d="M124.396 2.10553L210.315 120.209L212.776 120.664L126.805 2.48979C126.028 2.34604 125.186 2.19032 124.396 2.10553Z" fill="white"/>
<path d="M133.268 3.74666L215.937 117.381C216.056 116.544 216.227 115.778 216.334 114.999L135.833 4.34372C135.004 4.12904 134.11 3.90238 133.268 3.74666Z" fill="white"/>
<path d="M142.76 6.23895L217.12 108.453C217.188 107.545 217.256 106.637 217.324 105.729L145.595 7.13174C144.65 6.83414 143.705 6.53655 142.76 6.23895Z" fill="white"/>
<path d="M153.181 10.0081L217.388 98.1898C217.353 97.1397 217.318 96.0896 217.218 95.0274L156.377 11.3974C155.342 10.899 154.294 10.4595 153.181 10.0081Z" fill="white"/>
<path d="M165.111 15.7753L216.147 85.9281C215.905 84.5942 215.663 83.2603 215.357 81.9145L168.927 18.0158C167.672 17.2926 166.43 16.5105 165.111 15.7753Z" fill="white"/>
<path d="M180.279 26.0703L211.705 69.2685C210.806 66.9535 209.907 64.6386 208.864 62.3586L186.159 31.1481C184.26 29.3849 182.282 27.6686 180.279 26.0703Z" fill="white"/>
</svg>
