<svg width="111" height="201" viewBox="0 0 111 201" fill="none" xmlns="http://www.w3.org/2000/svg">
    <path d="M6.60859 200.595L0 194.569L0 192.279L8.98768 200.474C8.19465 200.474 7.40162 200.534 6.60859 200.595Z" fill="#0E278B"/>
    <path d="M14.8693 199.872L0 186.314L0 184.024L17.0502 199.57C16.3232 199.691 15.5963 199.751 14.8693 199.872Z" fill="#0E278B"/>
    <path d="M22.6014 198.667L0 178.059L0 175.769L24.65 198.245C23.9892 198.365 23.2622 198.546 22.6014 198.667Z" fill="#0E278B"/>
    <path d="M29.8708 197.04L0 169.804L0 167.453L31.8534 196.497C31.1925 196.678 30.5317 196.859 29.8708 197.04Z" fill="#0E278B"/>
    <path d="M36.7438 195.051L3.50254 164.742C4.29558 164.682 5.08861 164.682 5.88164 164.621L38.5942 194.449C37.9994 194.629 37.4046 194.87 36.7438 195.051Z" fill="#0E278B"/>
    <path d="M43.2863 192.701L11.6972 163.898C12.4242 163.778 13.1511 163.657 13.878 163.537L45.0706 192.038C44.4758 192.279 43.8811 192.52 43.2863 192.701Z" fill="#0E278B"/>
    <path d="M49.4983 190.11L19.1649 162.452C19.8258 162.271 20.4866 162.091 21.1475 161.91L51.1505 189.327C50.5557 189.568 50.027 189.869 49.4983 190.11Z" fill="#0E278B"/>
    <path d="M55.3139 187.218L25.9057 160.403C26.5005 160.162 27.0952 159.982 27.69 159.741L56.9661 186.314C56.4374 186.615 55.9087 186.916 55.3139 187.218Z" fill="#0E278B"/>
    <path d="M60.9312 184.024L32.1838 157.812C32.7125 157.571 33.3073 157.27 33.836 157.029L62.4512 183.06C61.9225 183.422 61.4599 183.723 60.9312 184.024Z" fill="#0E278B"/>
    <path d="M66.2181 180.59L37.9333 154.8C38.462 154.498 38.9907 154.197 39.4533 153.896L67.672 179.625C67.2094 179.927 66.7468 180.288 66.2181 180.59Z" fill="#0E278B"/>
    <path d="M71.2406 176.914L43.2202 151.365C43.6828 151.003 44.1454 150.702 44.608 150.341L72.5623 175.829C72.1658 176.191 71.7032 176.552 71.2406 176.914Z" fill="#0E278B"/>
    <path d="M76.0649 172.997L48.1766 147.569C48.6392 147.207 49.0357 146.846 49.4983 146.424L77.3205 171.852C76.924 172.214 76.4614 172.636 76.0649 172.997Z" fill="#0E278B"/>
    <path d="M80.5587 168.839L52.6705 143.411C53.067 142.989 53.4635 142.567 53.86 142.146L81.8144 167.634C81.3518 168.056 80.9552 168.418 80.5587 168.839Z" fill="#0E278B"/>
    <path d="M84.7882 164.441L56.7017 138.832C57.0321 138.41 57.4286 137.928 57.7591 137.506L85.9117 163.175C85.5812 163.597 85.1847 164.019 84.7882 164.441Z" fill="#0E278B"/>
    <path d="M88.7534 159.801L60.3364 133.891C60.6669 133.408 60.9973 132.926 61.2616 132.444L89.7447 158.415C89.4803 158.897 89.1499 159.379 88.7534 159.801Z" fill="#0E278B"/>
    <path d="M92.4542 154.92L63.5746 128.588C63.839 128.046 64.1033 127.564 64.3677 127.021L93.4455 153.534C93.115 153.956 92.7846 154.438 92.4542 154.92Z" fill="#0E278B"/>
    <path d="M95.8906 149.738L66.2842 122.743C66.4824 122.201 66.7468 121.598 66.945 121.056L96.7498 148.232C96.4854 148.774 96.2211 149.256 95.8906 149.738Z" fill="#0E278B"/>
    <path d="M98.9967 144.375L68.465 116.537C68.6633 115.934 68.7954 115.271 68.9276 114.669L99.7897 142.808C99.5915 143.291 99.3271 143.833 98.9967 144.375Z" fill="#0E278B"/>
    <path d="M101.838 138.651L69.985 109.607C70.1171 108.944 70.1832 108.221 70.2493 107.558L102.565 137.024C102.367 137.566 102.103 138.108 101.838 138.651Z" fill="#0E278B"/>
    <path d="M104.35 132.625L70.7119 101.954C70.7119 101.412 70.7119 100.87 70.7119 100.327C70.7119 100.086 70.7119 99.9057 70.7119 99.6646L104.944 130.878C104.746 131.48 104.548 132.083 104.35 132.625ZM0 35.1899L0.726945 35.8527C0.462601 35.8527 0.264344 35.8527 0 35.8527L0 35.1899Z" fill="#0E278B"/>
    <path d="M106.398 126.298L70.2493 93.3377C70.1172 92.4338 70.0511 91.53 69.8528 90.6864L106.861 124.43C106.795 125.093 106.597 125.696 106.398 126.298ZM7.66597 36.2745L0 29.2847L0 26.995L10.5737 36.6361C9.64854 36.4553 8.65725 36.3348 7.66597 36.2745Z" fill="#0E278B"/>
    <path d="M108.117 119.549L68.1346 83.094C67.8041 81.9492 67.4076 80.8645 67.0111 79.7799L108.447 117.561C108.381 118.284 108.249 118.947 108.117 119.549ZM18.8345 38.2028L0 20.9693L0 18.6796L22.5353 39.2271C21.3457 38.8656 20.0901 38.5041 18.8345 38.2028Z" fill="#0E278B"/>
    <path d="M109.372 112.439L61.9225 69.1747C60.6008 67.0055 59.1469 64.8965 57.5608 62.908L109.57 110.33C109.504 111.053 109.438 111.716 109.372 112.439ZM34.1664 43.8669L0 12.7141L0 10.4244L41.0393 47.8438C38.8585 46.3977 36.5455 45.072 34.1664 43.8669Z" fill="#0E278B"/>
    <path d="M110.033 104.786L0 4.45898L0 2.16923L110.099 102.557C110.099 103.28 110.099 104.063 110.033 104.786Z" fill="#0E278B"/>
    <path d="M110.033 96.5313L4.1634 -3.30241e-06C5.08861 0.0602537 5.94772 0.0602689 6.80684 0.120526L109.901 94.1211C109.967 94.9044 110.033 95.748 110.033 96.5313Z" fill="#0E278B"/>
    <path d="M109.24 87.5531L14.0102 0.723065C15.0015 0.843579 15.9928 0.964108 16.9841 1.08462L108.843 84.8415C108.976 85.7454 109.108 86.6492 109.24 87.5531Z" fill="#0E278B"/>
    <path d="M107.257 77.4901L25.1126 2.53071C26.2361 2.77174 27.3596 3.0128 28.483 3.31408L106.398 74.3568C106.729 75.3812 106.993 76.4055 107.257 77.4901Z" fill="#0E278B"/>
    <path d="M103.424 65.6798L38.0655 6.0859C39.4533 6.56796 40.8411 7.05001 42.2289 7.59233L101.772 61.8234C102.301 63.0888 102.896 64.3542 103.424 65.6798Z" fill="#0E278B"/>
    <path d="M95.362 50.0733L55.1156 13.3769C57.4287 14.6423 59.7417 15.9077 61.9886 17.2936L91.0664 43.8066C92.5863 45.8553 94.0402 47.9643 95.362 50.0733Z" fill="#0E278B"/>
</svg>
