<svg width="87" height="202" viewBox="0 0 87 202" fill="none" xmlns="http://www.w3.org/2000/svg">
    <path d="M103.491 201.737L110.099 195.69V193.392L101.111 201.616C101.904 201.616 102.697 201.677 103.491 201.737Z" fill="#0E278B"/>
    <path d="M95.2298 201.011L110.099 187.405V185.107L93.049 200.709C93.7759 200.83 94.5028 200.89 95.2298 201.011Z" fill="#0E278B"/>
    <path d="M87.4977 199.802L110.099 179.121V176.823L85.4491 199.379C86.1099 199.5 86.8369 199.681 87.4977 199.802Z" fill="#0E278B"/>
    <path d="M80.2283 198.169L110.099 170.836V168.477L78.2457 197.625C78.9066 197.806 79.5674 197.988 80.2283 198.169Z" fill="#0E278B"/>
    <path d="M73.3554 196.174L106.597 165.756C105.804 165.696 105.011 165.696 104.217 165.635L71.505 195.569C72.0997 195.75 72.6945 195.992 73.3554 196.174Z" fill="#0E278B"/>
    <path d="M66.8128 193.815L98.4019 164.91C97.675 164.789 96.948 164.668 96.2211 164.547L65.0285 193.15C65.6233 193.392 66.2181 193.634 66.8128 193.815Z" fill="#0E278B"/>
    <path d="M60.6008 191.215L90.9342 163.458C90.2733 163.277 89.6125 163.095 88.9516 162.914L58.9486 190.429C59.5434 190.671 60.0721 190.973 60.6008 191.215Z" fill="#0E278B"/>
    <path d="M54.7852 188.312L84.1934 161.402C83.5987 161.16 83.0039 160.979 82.4091 160.737L53.1331 187.405C53.6618 187.708 54.1904 188.01 54.7852 188.312Z" fill="#0E278B"/>
    <path d="M49.1679 185.107L77.9153 158.802C77.3866 158.56 76.7918 158.258 76.2631 158.016L47.6479 184.14C48.1766 184.503 48.6392 184.805 49.1679 185.107Z" fill="#0E278B"/>
    <path d="M43.881 181.66L72.1658 155.778C71.6371 155.476 71.1084 155.174 70.6458 154.871L42.4272 180.693C42.8898 180.995 43.3524 181.358 43.881 181.66Z" fill="#0E278B"/>
    <path d="M38.8585 177.972L66.8789 152.331C66.4163 151.969 65.9537 151.666 65.4911 151.303L37.5368 176.883C37.9333 177.246 38.3959 177.609 38.8585 177.972Z" fill="#0E278B"/>
    <path d="M34.0342 174.041L61.9225 148.522C61.4599 148.159 61.0634 147.796 60.6008 147.373L32.7786 172.892C33.1751 173.255 33.6377 173.678 34.0342 174.041Z" fill="#0E278B"/>
    <path d="M29.5404 169.868L57.4286 144.349C57.0321 143.926 56.6356 143.503 56.2391 143.079L28.2848 168.659C28.7474 169.082 29.1439 169.445 29.5404 169.868Z" fill="#0E278B"/>
    <path d="M25.3109 165.454L53.3974 139.753C53.067 139.33 52.6705 138.846 52.34 138.423L24.1875 164.184C24.5179 164.607 24.9144 165.031 25.3109 165.454Z" fill="#0E278B"/>
    <path d="M21.3458 160.798L49.7627 134.795C49.4323 134.311 49.1018 133.827 48.8375 133.343L20.3545 159.407C20.6188 159.89 20.9492 160.374 21.3458 160.798Z" fill="#0E278B"/>
    <path d="M17.6449 155.899L46.5245 129.473C46.2601 128.929 45.9958 128.445 45.7314 127.901L16.6536 154.508C16.9841 154.932 17.3145 155.415 17.6449 155.899Z" fill="#0E278B"/>
    <path d="M14.2085 150.699L43.815 123.607C43.6167 123.063 43.3524 122.458 43.1541 121.914L13.3494 149.187C13.6137 149.731 13.878 150.215 14.2085 150.699Z" fill="#0E278B"/>
    <path d="M11.1024 145.317L41.6341 117.379C41.4359 116.774 41.3037 116.109 41.1715 115.504L10.3094 143.744C10.5077 144.228 10.772 144.772 11.1024 145.317Z" fill="#0E278B"/>
    <path d="M8.26073 139.572L40.1141 110.424C39.982 109.759 39.9159 109.033 39.8498 108.368L7.5338 137.939C7.73206 138.483 7.99639 139.028 8.26073 139.572Z" fill="#0E278B"/>
    <path d="M5.74948 133.525L39.3872 102.744C39.3872 102.2 39.3872 101.656 39.3872 101.112C39.3872 100.87 39.3872 100.688 39.3872 100.446L5.1547 131.771C5.35296 132.376 5.55122 132.98 5.74948 133.525ZM110.099 35.7414L109.372 36.4066C109.637 36.4066 109.835 36.4066 110.099 36.4066V35.7414Z" fill="#0E278B"/>
    <path d="M3.70081 127.175L39.8498 94.0969C39.982 93.1898 40.0481 92.2827 40.2463 91.4361L3.23821 125.3C3.3043 125.966 3.50255 126.57 3.70081 127.175ZM102.433 36.8299L110.099 29.8152V27.5172L99.5254 37.1927C100.451 37.0113 101.442 36.8904 102.433 36.8299Z" fill="#0E278B"/>
    <path d="M1.98257 120.402L41.9646 83.8167C42.295 82.6677 42.6915 81.5792 43.088 80.4907L1.65214 118.407C1.71823 119.132 1.8504 119.798 1.98257 120.402ZM91.2646 38.765L110.099 21.47V19.1721L87.5638 39.7931C88.7534 39.4302 90.009 39.0674 91.2646 38.765Z" fill="#0E278B"/>
    <path d="M0.726943 113.267L48.1766 69.8476C49.4983 67.6706 50.9522 65.5541 52.5383 63.5585L0.528685 111.15C0.594771 111.876 0.660857 112.541 0.726943 113.267ZM75.9327 44.4494L110.099 13.1853V10.8874L69.0598 48.4405C71.2406 46.9892 73.5536 45.6588 75.9327 44.4494Z" fill="#0E278B"/>
    <path d="M0.0660847 105.587L110.099 4.90071L110.099 2.60278L-1.06698e-06 103.349C-1.06698e-06 104.075 -1.06698e-06 104.861 0.0660847 105.587Z" fill="#0E278B"/>
    <path d="M0.0661 97.302L105.936 0.425809C105.011 0.486279 104.151 0.486294 103.292 0.546765L0.198264 94.8831C0.132178 95.6692 0.0661 96.5158 0.0661 97.302Z" fill="#0E278B"/>
    <path d="M0.859107 88.2916L96.0889 1.15146C95.0976 1.27241 94.1063 1.39335 93.115 1.51429L1.25562 85.5704C1.12345 86.4775 0.991278 87.3845 0.859107 88.2916Z" fill="#0E278B"/>
    <path d="M2.84169 78.1927L84.9865 2.96557C83.863 3.20746 82.7396 3.44937 81.6161 3.75174L3.70081 75.0482C3.37038 76.0762 3.10603 77.1042 2.84169 78.1927Z" fill="#0E278B"/>
    <path d="M6.67467 66.3402L72.0336 6.53344C70.6458 7.01722 69.258 7.501 67.8702 8.04524L8.32683 62.47C7.79814 63.74 7.20337 65.0099 6.67467 66.3402Z" fill="#0E278B"/>
    <path d="M14.7372 50.678L54.9835 13.8505C52.6705 15.1204 50.3575 16.3903 48.1105 17.7812L19.0328 44.3889C17.5128 46.4449 16.0589 48.5615 14.7372 50.678Z" fill="#0E278B"/>
</svg>
