<svg width="89" height="185" viewBox="0 0 89 185" fill="none" xmlns="http://www.w3.org/2000/svg">
    <path d="M89.911 56.4937L88.2196 54.9515C87.6855 55.5196 87.2404 56.169 86.7952 56.8183L89.911 59.6592V56.4937Z" fill="#0E278B"/>
    <path d="M89.911 67.6138L83.6795 61.9319C83.3234 62.6625 82.9674 63.393 82.6113 64.1235L89.911 70.7793V67.6138Z" fill="#0E278B"/>
    <path d="M89.911 78.815L80.4748 70.2112C80.2077 71.0229 80.0297 71.9157 79.8516 72.8086L89.911 81.8995V78.815Z" fill="#0E278B"/>
    <path d="M89.911 89.9352L79.1395 80.1138C79.1395 80.2761 79.1395 80.5196 79.1395 80.6819C79.1395 81.5748 79.1395 82.4677 79.2285 83.2793L89.911 93.0196V89.9352Z" fill="#0E278B"/>
    <path d="M89.911 101.055L81.0089 92.9384C81.543 94.5618 82.1662 96.1851 82.8783 97.8085L89.911 104.14V101.055Z" fill="#0E278B"/>
    <path d="M89.911 3.08465L86.5282 0.000244141H83.0564L89.911 6.25023V3.08465Z" fill="#0E278B"/>
    <path d="M89.911 14.2048L74.3323 0.000244141H70.9496L87.8635 15.4223C88.5757 15.0976 89.2878 14.8541 90 14.6106C89.911 14.6106 89.911 14.2048 89.911 14.2048Z" fill="#0E278B"/>
    <path d="M81.9881 18.1009L62.1365 0.000244141H58.7537L79.8516 19.3184C80.5638 18.9125 81.276 18.5067 81.9881 18.1009Z" fill="#0E278B"/>
    <path d="M74.5104 22.484L49.8516 0.000244141H46.4688L72.5519 23.8638C73.2641 23.3768 73.8872 22.8898 74.5104 22.484Z" fill="#0E278B"/>
    <path d="M67.8338 27.5164L37.6558 0.000244141H37.2997C36.7656 0.487256 36.2314 0.8931 35.6973 1.38011L65.9644 28.9775C66.6766 28.4905 67.2107 28.0034 67.8338 27.5164Z" fill="#0E278B"/>
    <path d="M61.7804 33.1171L31.4243 5.43854C30.8902 6.00672 30.3561 6.49374 29.8219 7.06192L60.178 34.8216C60.7122 34.2534 61.2463 33.6852 61.7804 33.1171Z" fill="#0E278B"/>
    <path d="M56.4392 39.3671L25.816 11.445C25.2819 12.0132 24.8368 12.5814 24.3027 13.2307L55.1038 41.2339C55.549 40.5846 55.9941 40.0164 56.4392 39.3671Z" fill="#0E278B"/>
    <path d="M51.8101 46.2664L20.6528 17.8574C20.2077 18.5067 19.7626 19.0749 19.3175 19.7242L50.6528 48.3768C51.0089 47.6463 51.365 46.9969 51.8101 46.2664Z" fill="#0E278B"/>
    <path d="M47.9822 53.8963L15.9347 24.6755C15.4896 25.3249 15.1335 25.9742 14.6884 26.7047L47.092 56.2501C47.359 55.4385 47.6261 54.7079 47.9822 53.8963Z" fill="#0E278B"/>
    <path d="M45.0445 62.419L11.7507 32.0619C11.3947 32.7924 11.0386 33.4417 10.6825 34.1723L44.5104 65.0164C44.5994 64.1235 44.7775 63.2307 45.0445 62.419Z" fill="#0E278B"/>
    <path d="M43.2641 71.9157L8.01188 39.7729C7.65579 40.5034 7.38873 41.3151 7.12167 42.0456L42.997 74.7566C42.997 73.7826 43.0861 72.8086 43.2641 71.9157Z" fill="#0E278B"/>
    <path d="M42.908 82.7112L4.89613 48.0521C4.62907 48.8638 4.36201 49.6755 4.09495 50.4872L43.086 86.0391C43.086 84.9839 42.997 83.8475 42.908 82.7112Z" fill="#0E278B"/>
    <path d="M44.9555 95.6981L2.49258 56.8995C2.31454 57.7924 2.1365 58.604 1.95846 59.4969L46.2908 100.081C45.7567 98.6202 45.3116 97.1592 44.9555 95.6981Z" fill="#0E278B"/>
    <path d="M89.911 147.89L81.0979 139.854C76.7359 137.5 72.6409 134.821 68.8131 131.818L89.911 150.974V147.89ZM53.1454 114.367L0.801193 66.5586C0.712166 67.5326 0.534126 68.4255 0.445107 69.3995L61.9585 125.487C58.6647 122.078 55.727 118.344 53.1454 114.367Z" fill="#0E278B"/>
    <path d="M89.911 159.01L0 77.0293C0 77.7598 0 78.4904 0 79.2209C0 79.5456 0 79.7891 0 80.1137L89.911 162.094V159.01Z" fill="#0E278B"/>
    <path d="M89.911 170.13L0.445107 88.4741C0.534126 89.6105 0.712166 90.828 0.801193 91.9644L89.911 173.214V170.13Z" fill="#0E278B"/>
    <path d="M89.911 181.25L2.49258 101.542C2.75965 102.922 3.11573 104.221 3.47181 105.601L89.911 184.416V181.25Z" fill="#0E278B"/>
    <path d="M77.9822 181.575L7.38873 117.208C8.1009 118.994 8.90208 120.698 9.70327 122.403L72.2849 179.464C74.1543 180.195 76.1128 180.925 77.9822 181.575Z" fill="#0E278B"/>
    <path d="M52.9674 169.805L20.2967 140.016C28.9318 151.786 40.0593 161.932 52.9674 169.805Z" fill="#0E278B"/>
</svg>
