<?xml version="1.0" encoding="UTF-8"?>
<!DOCTYPE svg PUBLIC "-//W3C//DTD SVG 1.1//EN" "http://www.w3.org/Graphics/SVG/1.1/DTD/svg11.dtd">
<!-- Creator: CorelDRAW X7 -->
<svg xmlns="http://www.w3.org/2000/svg" xml:space="preserve" width="56.9454mm" height="27.6507mm" version="1.1" style="shape-rendering:geometricPrecision; text-rendering:geometricPrecision; image-rendering:optimizeQuality; fill-rule:evenodd; clip-rule:evenodd"
viewBox="0 0 650 316"
 xmlns:xlink="http://www.w3.org/1999/xlink">
 <defs>
  <style type="text/css">
   <![CDATA[
    .fil0 {fill:#002366}
   ]]>
  </style>
 </defs>
 <g id="Слой_x0020_1">
  <metadata id="CorelCorpID_0Corel-Layer"/>
  <path class="fil0" d="M554 25l4 7 5 0c-1,-3 -3,-5 -4,-8 4,-3 7,-13 -9,-13 -5,0 -5,1 -5,5l0 16 5 0 0 -7 4 0zm3 -7c1,4 -4,3 -7,3l0 -6c3,0 7,0 7,3z"/>
  <path class="fil0" d="M636 63l-169 0c-27,0 -54,0 -81,0 -7,0 -9,4 -9,11 0,7 0,14 0,21 0,9 7,8 11,8 7,0 14,0 21,0l123 0c18,0 14,3 14,41 0,11 2,19 -4,22 -3,2 -6,1 -9,1l-120 0c-8,0 -15,0 -23,0 -16,0 -13,5 -13,29 0,11 4,11 15,11 21,0 59,1 76,-1 30,-3 59,-9 84,-19 15,-6 34,-17 47,-28l9 -7c10,-9 22,-24 29,-36 6,-13 10,-26 10,-43 0,-9 -3,-10 -11,-10z"/>
  <path class="fil0" d="M475 40c5,-2 5,-7 5,-13 0,-6 0,-12 0,-18 0,-3 -1,-7 -5,-8 -3,-2 -91,-1 -93,0 -5,2 -5,6 -5,12 0,6 0,12 0,18 0,12 11,9 27,9 9,0 67,1 71,0z"/>
  <path class="fil0" d="M336 168l0 -154c0,-17 -4,-14 -26,-14l-119 0c-4,0 -7,1 -10,1l-21 3c-3,0 -6,1 -10,1 -3,1 -7,2 -9,2 -3,1 -6,1 -9,2 -14,4 -19,5 -31,10 -1,0 -3,1 -4,1l-10 5c-7,3 -15,7 -21,11l-14 9c-5,5 -20,18 -23,22 -2,2 -2,2 -3,4 -7,7 -12,15 -16,24 -5,9 -14,39 -7,46 1,1 2,2 4,2l28 0 47 0c24,0 22,2 22,-24l0 -68c-1,-11 5,-11 12,-11 6,0 44,0 47,1 4,2 5,5 5,11l0 145c0,4 0,10 7,10 7,0 52,0 54,-1 5,-3 4,-7 4,-14l0 -127c0,-19 -3,-25 12,-25 18,0 26,-3 26,11l0 146c0,13 8,10 28,10 6,0 12,0 19,0 22,0 18,2 18,-39z"/>
  <path class="fil0" d="M608 253c0,4 0,58 0,61l16 0c1,-15 -1,-43 0,-61l20 0c5,0 6,-1 6,-6 0,-5 -2,-7 -6,-7 -4,-1 -53,-1 -58,-1 -3,5 -5,14 6,14l16 0z"/>
  <path class="fil0" d="M544 254c3,-1 26,-1 32,-1 1,-2 3,-7 1,-10 -1,-4 -5,-4 -9,-4l-27 0c-16,0 -13,4 -13,31 0,7 0,40 1,44 4,0 12,1 15,-1l0 -29 29 0c2,-6 4,-13 -6,-14 -6,0 -18,1 -23,0l0 -16z"/>
  <path class="fil0" d="M513 273c-2,-30 -33,-42 -55,-32 -3,1 -7,3 -10,6l0 0 -1 1 0 0c-3,3 -5,7 -8,11 -4,10 -4,22 -1,32 4,11 13,20 24,23 2,1 6,1 8,2l10 0c7,-3 16,-3 25,-14 6,-7 9,-18 8,-29zm-24 -17c3,2 7,9 8,16 1,7 -1,14 -4,19 -10,19 -37,14 -41,-9 -4,-28 21,-38 37,-26z"/>
  <path class="fil0" d="M425 295c1,-15 -8,-21 -20,-24 -5,-2 -12,-2 -17,-5 -3,-1 -5,-2 -6,-5 -3,-10 10,-12 20,-10 8,1 10,5 14,7 5,-3 8,-9 3,-14 -1,-1 -2,-2 -4,-3 -1,0 -2,0 -3,-1l-9 -2c-4,-1 -9,-1 -14,0 -4,0 -8,1 -11,3 -2,1 -3,2 -5,3l-2 3c-6,7 -7,18 0,26 10,13 34,7 38,18 1,5 -1,9 -4,10 -3,2 -8,3 -12,2 -12,0 -15,-4 -21,-7 -2,2 -7,8 -8,11 6,4 10,5 17,7l6 2 14 0c5,-2 10,-2 16,-7 5,-3 7,-7 8,-14z"/>
  <path class="fil0" d="M359 314c-1,-4 -15,-38 -16,-42 -3,-6 -10,-24 -14,-29 -2,-3 -6,-5 -10,-5 -10,1 -11,7 -15,15 -3,6 -6,13 -9,20 0,1 0,1 -1,2 0,1 0,2 -1,3l-6 15c-2,7 -6,14 -8,21l15 0c2,-1 1,0 2,-3 1,-3 3,-9 5,-13l36 0c0,2 5,14 6,16l16 0zm-40 -60c1,5 3,8 5,12 2,5 5,14 7,19l-25 -1 13 -30z"/>
  <path class="fil0" d="M550 3c-25,6 -17,43 8,38 9,-2 17,-11 15,-22 -2,-10 -12,-18 -23,-16zm6 34c-9,1 -15,-5 -16,-12 -2,-9 4,-16 11,-18 20,-3 24,28 5,30z"/>
  <path class="fil0" d="M269 314c-1,-4 0,-63 -1,-73 -2,-2 -14,-4 -15,4l0 69 16 0z"/>
  <path class="fil0" d="M219 309c24,-12 23,-46 8,-60 -3,-3 -9,-6 -14,-8 -6,-2 -14,-2 -22,-2 -23,0 -20,-1 -20,27 0,7 -1,44 0,48 17,0 35,2 48,-5zm-7 -12c-6,4 -17,5 -26,4l0 -48c8,-2 23,-1 29,5 2,2 2,3 4,6 1,2 1,3 2,5 2,10 -1,22 -9,28z"/>
  <path class="fil0" d="M153 314l0 -14 -37 0 0 -16c3,-2 28,-1 34,-1 1,-2 2,-7 1,-10 -1,-4 -5,-4 -9,-4 -8,0 -17,0 -26,0l0 -16 35 0c2,-3 4,-11 -1,-13 -3,-1 -13,-1 -17,-1 -39,0 -33,-5 -33,39l0 36 53 0z"/>
  <path class="fil0" d="M84 314c-2,-24 -3,-48 -5,-72 -4,-2 -11,-4 -16,-1 -3,2 -5,8 -7,12l-13 27c0,0 -1,0 -1,0 0,0 0,0 0,0 0,0 0,0 -1,-1l-12 -24c-1,-2 -4,-11 -6,-13 -2,-2 -10,-3 -14,-2 -7,3 -6,13 -6,23 -1,8 -2,41 -3,43l0 8 16 0 3 -52c2,3 15,34 18,38l10 0 18 -38 3 52 16 0z"/>
  <path class="fil0" d="M31 207l63 0c8,0 10,-3 10,-10l0 -19c0,-14 -10,-11 -30,-11 -12,0 -24,0 -36,0 -38,0 -37,-3 -37,16 0,9 -2,18 2,22 1,1 1,1 2,1 2,1 5,1 8,1 6,0 12,0 18,0z"/>
 </g>
</svg>
