<svg width="119" height="58" viewBox="0 0 119 58" fill="none" xmlns="http://www.w3.org/2000/svg">
<g clip-path="url(#clip0_64_2)">
<path fill-rule="evenodd" clip-rule="evenodd" d="M101.374 4.5886L102.105 5.87341H103.019C102.837 5.32278 102.471 4.95569 102.288 4.40506C103.019 3.85443 103.568 2.01898 100.642 2.01898C99.728 2.01898 99.728 2.20253 99.728 2.9367V5.87341H100.642V4.5886H101.374ZM101.922 3.30379C102.105 4.03797 101.191 3.85443 100.642 3.85443V2.75316C101.191 2.75316 101.922 2.75316 101.922 3.30379Z" fill="white"/>
<path fill-rule="evenodd" clip-rule="evenodd" d="M116.368 11.5633H85.4653C80.5282 11.5633 75.5911 11.5633 70.654 11.5633C69.374 11.5633 69.0083 12.2975 69.0083 13.5823C69.0083 14.8671 69.0083 16.1519 69.0083 17.4367C69.0083 19.0886 70.2883 18.9051 71.0197 18.9051C72.2997 18.9051 73.5797 18.9051 74.8597 18.9051H97.3509C100.642 18.9051 99.9109 19.4557 99.9109 26.4304C99.9109 28.4494 100.277 29.9177 99.1794 30.4684C98.6309 30.8354 98.0823 30.6519 97.5337 30.6519H75.5911C74.1283 30.6519 72.8483 30.6519 71.3854 30.6519C68.4598 30.6519 69.0083 31.5696 69.0083 35.9747C69.0083 37.9937 69.7398 37.9937 71.7512 37.9937C75.5911 37.9937 82.5396 38.1772 85.6482 37.8101C91.1338 37.2595 96.4366 36.1582 101.008 34.3228C103.751 33.2215 107.225 31.2025 109.602 29.1835L111.248 27.8987C113.076 26.2468 115.271 23.4937 116.551 21.2911C117.648 18.9051 118.379 16.519 118.379 13.3987C118.379 11.7468 117.831 11.5633 116.368 11.5633Z" fill="white"/>
<path fill-rule="evenodd" clip-rule="evenodd" d="M86.9284 7.34177C87.8426 6.97468 87.8426 6.05696 87.8426 4.95569C87.8426 3.85443 87.8426 2.75316 87.8426 1.6519C87.8426 1.10126 87.6598 0.367086 86.9284 0.183542C86.3798 -0.183547 70.2885 -2.20537e-06 69.9228 0.183542C69.0085 0.550631 69.0085 1.28481 69.0085 2.38607C69.0085 3.48734 69.0085 4.58861 69.0085 5.68987C69.0085 7.8924 71.02 7.34177 73.9456 7.34177C75.5913 7.34177 86.1969 7.52532 86.9284 7.34177Z" fill="white"/>
<path fill-rule="evenodd" clip-rule="evenodd" d="M61.5113 30.8354V2.56962C61.5113 -0.550636 60.7799 -3.40492e-06 56.757 -3.40492e-06H34.9973C34.2658 -3.40492e-06 33.7173 0.183541 33.1687 0.183541L29.3287 0.734174C28.7802 0.734174 28.2316 0.917718 27.5002 0.917718C26.9516 1.10126 26.2202 1.28481 25.8545 1.28481C25.3059 1.46835 24.7574 1.46835 24.2088 1.6519C21.6488 2.38607 20.7345 2.56962 18.5403 3.48734C18.3574 3.48734 17.9917 3.67088 17.8089 3.67088L15.9803 4.5886C14.7003 5.13924 13.2375 5.87341 12.1404 6.60759L9.58038 8.25949C8.6661 9.17721 5.92328 11.5633 5.37471 12.2975C5.009 12.6646 5.009 12.6646 4.82614 13.0316C3.54616 14.3165 2.63188 15.7848 1.90046 17.4367C0.986185 19.0886 -0.659512 24.5949 0.620474 25.8797C0.803329 26.0633 0.986185 26.2468 1.3519 26.2468H6.47184H15.066C19.4546 26.2468 19.0889 26.6139 19.0889 21.8418V9.36076C18.906 7.34177 20.0031 7.34177 21.2831 7.34177C22.3802 7.34177 29.3287 7.34177 29.8773 7.52531C30.6087 7.8924 30.7916 8.44303 30.7916 9.5443V36.1582C30.7916 36.8924 30.7916 37.9937 32.0716 37.9937C33.3516 37.9937 41.58 37.9937 41.9458 37.8101C42.86 37.2595 42.6772 36.5253 42.6772 35.2405V11.9304C42.6772 8.44304 42.1286 7.34177 44.8714 7.34177C48.1628 7.34177 49.6257 6.79114 49.6257 9.36076V36.1582C49.6257 38.5443 51.0885 37.9937 54.7456 37.9937C55.8428 37.9937 56.9399 37.9937 58.2199 37.9937C62.2427 37.9937 61.5113 38.3608 61.5113 30.8354Z" fill="white"/>
<path fill-rule="evenodd" clip-rule="evenodd" d="M111.248 46.4367C111.248 47.1709 111.248 57.0823 111.248 57.6329H114.174C114.356 54.8797 113.991 49.7405 114.174 46.4367H117.831C118.745 46.4367 118.928 46.2532 118.928 45.3354C118.928 44.4177 118.562 44.0506 117.831 44.0506C117.099 43.8671 108.139 43.8671 107.225 43.8671C106.677 44.7848 106.311 46.4367 108.322 46.4367H111.248Z" fill="white"/>
<path fill-rule="evenodd" clip-rule="evenodd" d="M99.5453 46.6202C100.094 46.4367 104.3 46.4367 105.397 46.4367C105.58 46.0696 105.945 45.1519 105.58 44.6013C105.397 43.8671 104.665 43.8671 103.934 43.8671H98.9968C96.0711 43.8671 96.6197 44.6013 96.6197 49.557C96.6197 50.8418 96.6197 56.8987 96.8025 57.6329C97.5339 57.6329 98.9968 57.8164 99.5453 57.4494V52.1266H104.848C105.214 51.0253 105.58 49.7405 103.751 49.557C102.654 49.557 100.46 49.7405 99.5453 49.557V46.6202Z" fill="white"/>
<path fill-rule="evenodd" clip-rule="evenodd" d="M93.8767 50.1076C93.5109 44.6013 87.8424 42.3987 83.8196 44.2342C83.271 44.4177 82.5396 44.7848 81.9911 45.3354L81.8082 45.519C81.2596 46.0696 80.8939 46.8038 80.3454 47.538C79.6139 49.3734 79.6139 51.5759 80.1625 53.4114C80.8939 55.4304 82.5396 57.0823 84.551 57.6329C84.9167 57.8165 85.6482 57.8165 86.0139 58H87.8424C89.1224 57.4494 90.7681 57.4494 92.4138 55.4304C93.5109 54.1456 94.0595 52.1266 93.8767 50.1076ZM89.4881 46.9873C90.0367 47.3544 90.7681 48.6392 90.951 49.924C91.1338 51.2089 90.7681 52.4937 90.2196 53.4114C88.391 56.8987 83.4539 55.981 82.7225 51.7595C81.9911 46.6202 86.5624 44.7848 89.4881 46.9873Z" fill="white"/>
<path fill-rule="evenodd" clip-rule="evenodd" d="M77.7855 54.1456C77.9684 51.3924 76.3227 50.2911 74.1284 49.7405C73.2141 49.3734 71.9341 49.3734 71.0199 48.8228C70.4713 48.6392 70.1056 48.4557 69.9227 47.9051C69.3742 46.0696 71.7513 45.7025 73.5798 46.0696C75.0427 46.2532 75.4084 46.9873 76.1398 47.3544C77.0541 46.8038 77.6027 45.7025 76.6884 44.7848C76.5055 44.6013 76.3227 44.4177 75.957 44.2342C75.7741 44.2342 75.5913 44.2342 75.4084 44.0506L73.7627 43.6835C73.0313 43.5 72.117 43.5 71.2027 43.6835C70.4713 43.6835 69.7399 43.8671 69.1913 44.2342C68.8256 44.4177 68.6428 44.6013 68.277 44.7848L67.9113 45.3354C66.8142 46.6202 66.6313 48.6392 67.9113 50.1076C69.7399 52.4937 74.1284 51.3924 74.8598 53.4114C75.0427 54.3291 74.677 55.0633 74.1284 55.2468C73.5798 55.6139 72.6656 55.7975 71.9341 55.6139C69.7399 55.6139 69.1913 54.8797 68.0942 54.3291C67.7285 54.6962 66.8142 55.7975 66.6313 56.3481C67.7285 57.0823 68.4599 57.2658 69.7399 57.6329L70.837 58H73.397C74.3113 57.6329 75.2255 57.6329 76.3227 56.7152C77.2369 56.1646 77.6027 55.4304 77.7855 54.1456Z" fill="white"/>
<path fill-rule="evenodd" clip-rule="evenodd" d="M65.717 57.6329C65.5342 56.8987 62.9742 50.6582 62.7914 49.924C62.2428 48.8228 60.9628 45.519 60.2314 44.6013C59.8657 44.0506 59.1343 43.6835 58.4028 43.6835C56.5743 43.8671 56.3914 44.9684 55.66 46.4367C55.1114 47.538 54.5629 48.8228 54.0143 50.1076C54.0143 50.2911 54.0143 50.2911 53.8315 50.4747C53.8315 50.6582 53.8315 50.8418 53.6486 51.0253L52.5515 53.7785C52.1858 55.0633 51.4543 56.3481 51.0886 57.6329H53.8315C54.1972 57.4494 54.0143 57.6329 54.1972 57.0823C54.38 56.5316 54.7457 55.4304 55.1114 54.6962H61.6942C61.6942 55.0633 62.6085 57.2658 62.7914 57.6329H65.717ZM58.4028 46.6202C58.5857 47.538 58.9514 48.0886 59.3171 48.8228C59.6828 49.7405 60.2314 51.3924 60.5971 52.3101L56.0257 52.1266L58.4028 46.6202Z" fill="white"/>
<path fill-rule="evenodd" clip-rule="evenodd" d="M100.642 0.550631C96.0709 1.6519 97.5338 8.44304 102.105 7.52531C103.751 7.15823 105.214 5.50633 104.848 3.48734C104.482 1.6519 102.654 0.183542 100.642 0.550631ZM101.739 6.79114C100.094 6.97468 98.9966 5.87342 98.8138 4.58861C98.4481 2.93671 99.5452 1.6519 100.825 1.28481C104.482 0.734175 105.214 6.42405 101.739 6.79114Z" fill="white"/>
<path fill-rule="evenodd" clip-rule="evenodd" d="M49.2602 57.6329C49.0773 56.8987 49.2602 46.0696 49.0773 44.2342C48.7116 43.8671 46.5173 43.5 46.3345 44.9683V57.6329H49.2602Z" fill="white"/>
<path fill-rule="evenodd" clip-rule="evenodd" d="M40.1174 56.7152C44.5059 54.5127 44.323 48.2722 41.5802 45.7025C41.0316 45.1519 39.9345 44.6013 39.0202 44.2342C37.9231 43.8671 36.4602 43.8671 34.9974 43.8671C30.7917 43.8671 31.3403 43.6835 31.3403 48.8228C31.3403 50.1076 31.1574 56.8987 31.3403 57.6329C34.4488 57.6329 37.7402 58 40.1174 56.7152ZM38.8374 54.5127C37.7402 55.2468 35.7288 55.4304 34.0831 55.2468V46.4367C35.546 46.0696 38.2888 46.2532 39.3859 47.3544C39.7516 47.7215 39.7516 47.9051 40.1174 48.4557C40.3002 48.8228 40.3002 49.0063 40.4831 49.3734C40.8488 51.2089 40.3002 53.4114 38.8374 54.5127Z" fill="white"/>
<path fill-rule="evenodd" clip-rule="evenodd" d="M28.0489 57.6329V55.0633H21.2833V52.1266C21.8319 51.7595 26.4032 51.943 27.5004 51.943C27.6832 51.5759 27.8661 50.6582 27.6832 50.1076C27.5004 49.3734 26.769 49.3734 26.0375 49.3734C24.5747 49.3734 22.929 49.3734 21.2833 49.3734V46.4367H27.6832C28.0489 45.8861 28.4147 44.4177 27.5004 44.0506C26.9518 43.8671 25.1233 43.8671 24.3918 43.8671C17.2605 43.8671 18.3576 42.9494 18.3576 51.0253V57.6329H28.0489Z" fill="white"/>
<path fill-rule="evenodd" clip-rule="evenodd" d="M15.4319 57.6329C15.0662 53.2278 14.8833 48.8228 14.5176 44.4177C13.7862 44.0506 12.5062 43.6835 11.5919 44.2342C11.0433 44.6013 10.6776 45.7025 10.3119 46.4367L7.9348 51.3924H7.75194C7.75194 51.3924 7.75194 51.3924 7.56909 51.2089L5.37482 46.8038C5.19197 46.4367 4.6434 44.7848 4.27769 44.4177C3.91198 44.0506 2.44914 43.8671 1.71772 44.0506C0.437732 44.6013 0.620587 46.4367 0.620587 48.2722C0.437732 49.7405 0.254877 55.7975 0.0720215 56.1646V57.6329H2.99771L3.54627 48.0886C3.91198 48.6392 6.2891 54.3291 6.83767 55.0633H8.66622L11.9576 48.0886L12.5062 57.6329H15.4319Z" fill="white"/>
<path fill-rule="evenodd" clip-rule="evenodd" d="M5.74041 37.9937H17.2603C18.7231 37.9937 19.0888 37.443 19.0888 36.1582V32.6709C19.0888 30.1013 17.2603 30.6519 13.6032 30.6519C11.4089 30.6519 9.21466 30.6519 7.0204 30.6519C0.0719025 30.6519 0.254758 30.1013 0.254758 33.5886C0.254758 35.2405 -0.110953 36.8924 0.620468 37.6266C0.803323 37.8101 0.803323 37.8101 0.986179 37.8101C1.35189 37.9937 1.90045 37.9937 2.44902 37.9937C3.54615 37.9937 4.64328 37.9937 5.74041 37.9937Z" fill="white"/>
</g>
<defs>
<clipPath id="clip0_64_2">
<rect width="119" height="58" fill="white"/>
</clipPath>
</defs>
</svg>
