<svg width="22" height="20" viewBox="0 0 22 20" fill="none" xmlns="http://www.w3.org/2000/svg">
    <path d="M0 4.57953C0.0286309 4.49936 0.0572618 4.4192 0.0801666 4.33903C0.31494 3.53737 1.03644 2.96475 1.87246 2.95329C2.74284 2.94184 3.61895 2.94757 4.48933 2.94757C4.80427 2.94757 5.02186 3.09645 5.11921 3.39994C5.54867 4.67688 5.97814 5.95381 6.4076 7.23648C6.48204 7.4598 6.4305 7.65449 6.30453 7.84346C5.98386 8.32446 5.6632 8.80545 5.3368 9.28645C5.26236 9.39525 5.26236 9.47542 5.31963 9.58994C5.98959 10.8268 6.90005 11.869 7.9823 12.7508C8.53774 13.2032 9.16762 13.5696 9.76314 13.9762C9.87194 14.0506 9.95211 14.0277 10.0495 13.959C10.5247 13.6384 11.0057 13.3291 11.4753 13.0027C11.6986 12.8481 11.9276 12.8195 12.1853 12.9054C13.4165 13.3234 14.6533 13.73 15.8844 14.1423C16.2566 14.2682 16.4055 14.4687 16.4055 14.858C16.4055 15.6711 16.4112 16.4843 16.4055 17.3031C16.3998 18.4541 15.558 19.2958 14.4071 19.2786C12.0078 19.2557 9.7746 18.5915 7.7189 17.3776C4.3519 15.3963 1.96408 12.5962 0.67569 8.89135C0.326393 7.87781 0.114524 6.84137 0.0343571 5.77058C0.0286309 5.70186 0.0114524 5.63315 0 5.56443C0 5.23804 0 4.91165 0 4.57953ZM15.1171 16.3869C15.1171 16.0663 15.1114 15.7456 15.1229 15.4249C15.1286 15.2818 15.077 15.2302 14.9453 15.1844C14.0177 14.8809 13.0901 14.566 12.1567 14.2682C12.0708 14.2396 11.9448 14.2568 11.8704 14.3083C11.4867 14.5488 11.0916 14.7664 10.748 15.0584C10.2384 15.4879 9.76887 15.4593 9.20198 15.1558C7.96512 14.4858 6.89433 13.6212 5.94378 12.6019C5.13066 11.7373 4.42634 10.8039 3.95107 9.70447C3.83654 9.43534 3.85372 9.20056 4.01978 8.96006C4.3519 8.47906 4.67829 7.99234 4.99323 7.49416C5.03904 7.41972 5.06195 7.28802 5.03332 7.20785C4.72983 6.26875 4.40916 5.34111 4.10567 4.40202C4.06559 4.27604 4.00833 4.23596 3.87663 4.24169C3.25247 4.24741 2.63404 4.24169 2.00989 4.24741C1.53462 4.24741 1.28839 4.49936 1.29412 4.98036C1.30557 6.29166 1.54034 7.5686 2.00416 8.794C3.2811 12.1725 5.53722 14.7149 8.68662 16.4614C10.4675 17.452 12.38 17.9845 14.4243 18.0074C14.8594 18.0132 15.1229 17.7498 15.1229 17.3203C15.1171 17.0054 15.1171 16.6961 15.1171 16.3869Z" fill="white"/>
    <path d="M21.9887 4.92309C21.9314 5.18077 21.8913 5.43844 21.8169 5.69612C21.2843 7.61439 19.5149 8.9715 17.5222 8.9944C16.7836 9.00586 16.0506 8.98868 15.3119 9.00013C15.2089 9.00013 15.0772 9.05739 15.0027 9.13183C14.2869 9.83043 13.5826 10.5405 12.8726 11.2505C12.8268 11.2963 12.781 11.3421 12.7351 11.3879C12.5233 11.5769 12.2828 11.6342 12.0194 11.5139C11.7674 11.3994 11.6414 11.1933 11.6414 10.9184C11.6357 10.3458 11.6414 9.77316 11.6414 9.20627C11.6414 9.12611 11.6414 9.05167 11.6014 9.02876C11.086 8.82262 10.542 8.66801 10.0667 8.40461C8.40042 7.47696 7.50141 5.57015 7.83926 3.7664C8.2 1.81377 9.66018 0.365044 11.5899 0.0558303C11.8361 0.015747 12.0881 0.00429464 12.34 0.00429464C14.0293 -0.00143155 15.7185 -0.00143155 17.4077 0.00429464C19.681 0.0100208 21.5134 1.53319 21.9371 3.76067C21.9543 3.86374 21.9772 3.96681 22.0001 4.07561C21.9887 4.35047 21.9887 4.63678 21.9887 4.92309ZM12.9241 9.37806C13.4166 8.88561 13.8689 8.43896 14.3156 7.9866C14.5045 7.79763 14.7164 7.70601 14.9855 7.71174C15.8387 7.71746 16.6862 7.72319 17.5394 7.71174C19.2515 7.68311 20.6774 6.25729 20.7003 4.55661C20.7232 2.78149 19.2859 1.29841 17.5051 1.28696C15.7471 1.27551 13.9835 1.28123 12.2255 1.28696C12.0365 1.28696 11.8361 1.30986 11.6529 1.34995C10.0324 1.68779 8.9215 3.17087 9.07611 4.77421C9.23644 6.4348 10.5706 7.67166 12.2427 7.71174C12.6722 7.72319 12.9298 7.98087 12.9298 8.41606C12.9298 8.71382 12.9241 9.01158 12.9241 9.37806Z" fill="#FC5A5A"/>
    <path d="M12.924 4.49935C12.9182 4.84865 12.6262 5.13495 12.2826 5.13495C11.9276 5.13495 11.6299 4.83147 11.6413 4.47644C11.6528 4.12715 11.9505 3.84656 12.2941 3.85229C12.6434 3.85802 12.9297 4.15578 12.924 4.49935Z" fill="#FC5A5A"/>
    <path d="M15.5009 4.49362C15.5009 4.84292 15.2089 5.13495 14.8653 5.13495C14.5103 5.14068 14.2125 4.83719 14.2182 4.48217C14.2239 4.13287 14.5217 3.84656 14.8653 3.85229C15.2146 3.85801 15.5009 4.15005 15.5009 4.49362Z" fill="#FC5A5A"/>
    <path d="M18.0776 4.48789C18.0833 4.83718 17.797 5.12922 17.4477 5.14067C17.0927 5.1464 16.7892 4.84864 16.7892 4.49361C16.7892 4.14431 17.0812 3.85801 17.4305 3.85228C17.7798 3.85228 18.0776 4.13859 18.0776 4.48789Z" fill="#FC5A5A"/>
</svg>
