<svg width="17" height="18" viewBox="0 0 17 18" fill="none" xmlns="http://www.w3.org/2000/svg">
<path d="M0 2.57953C0.0286309 2.49936 0.0572618 2.4192 0.0801666 2.33903C0.31494 1.53737 1.03644 0.964747 1.87246 0.953294C2.74284 0.941842 3.61895 0.947568 4.48933 0.947568C4.80427 0.947568 5.02186 1.09645 5.11921 1.39994C5.54867 2.67688 5.97814 3.95381 6.4076 5.23648C6.48204 5.4598 6.4305 5.65449 6.30453 5.84346C5.98386 6.32446 5.6632 6.80545 5.3368 7.28645C5.26236 7.39525 5.26236 7.47542 5.31963 7.58994C5.98959 8.8268 6.90005 9.86896 7.9823 10.7508C8.53774 11.2032 9.16762 11.5696 9.76314 11.9762C9.87194 12.0506 9.95211 12.0277 10.0495 11.959C10.5247 11.6384 11.0057 11.3291 11.4753 11.0027C11.6986 10.8481 11.9276 10.8195 12.1853 10.9054C13.4165 11.3234 14.6533 11.73 15.8844 12.1423C16.2566 12.2682 16.4055 12.4687 16.4055 12.858C16.4055 13.6711 16.4112 14.4843 16.4055 15.3031C16.3998 16.4541 15.558 17.2958 14.4071 17.2786C12.0078 17.2557 9.7746 16.5915 7.7189 15.3776C4.3519 13.3963 1.96408 10.5962 0.67569 6.89135C0.326393 5.87781 0.114524 4.84137 0.0343571 3.77058C0.0286309 3.70186 0.0114524 3.63315 0 3.56443C0 3.23804 0 2.91165 0 2.57953ZM15.1171 14.3869C15.1171 14.0663 15.1114 13.7456 15.1229 13.4249C15.1286 13.2818 15.077 13.2302 14.9453 13.1844C14.0177 12.8809 13.0901 12.566 12.1567 12.2682C12.0708 12.2396 11.9448 12.2568 11.8704 12.3083C11.4867 12.5488 11.0916 12.7664 10.748 13.0584C10.2384 13.4879 9.76887 13.4593 9.20198 13.1558C7.96512 12.4858 6.89433 11.6212 5.94378 10.6019C5.13066 9.73726 4.42634 8.80389 3.95107 7.70447C3.83654 7.43533 3.85372 7.20056 4.01978 6.96006C4.3519 6.47906 4.67829 5.99234 4.99323 5.49416C5.03904 5.41972 5.06195 5.28802 5.03332 5.20785C4.72983 4.26875 4.40916 3.34111 4.10567 2.40202C4.06559 2.27604 4.00833 2.23596 3.87663 2.24169C3.25247 2.24741 2.63404 2.24169 2.00989 2.24741C1.53462 2.24741 1.28839 2.49936 1.29412 2.98036C1.30557 4.29166 1.54034 5.5686 2.00416 6.794C3.2811 10.1725 5.53722 12.7149 8.68662 14.4614C10.4675 15.452 12.38 15.9845 14.4243 16.0074C14.8594 16.0132 15.1229 15.7498 15.1229 15.3203C15.1171 15.0054 15.1171 14.6961 15.1171 14.3869Z" fill="white"/>
</svg>
