<svg width="26" height="26" viewBox="0 0 26 26" fill="none" xmlns="http://www.w3.org/2000/svg">
    <path fill-rule="evenodd" clip-rule="evenodd" d="M13 0C20.1797 0 26 5.8203 26 13C26 20.1797 20.1797 26 13 26C5.8203 26 0 20.1797 0 13C0 5.8203 5.8203 0 13 0ZM13.7786 5.29541C14.6625 5.40573 15.3769 5.61866 16.1606 6.00095C16.9315 6.37812 17.4248 6.73474 18.0775 7.38385C18.6891 7.99706 19.0283 8.46149 19.388 9.18243C19.8891 10.1882 20.1743 11.3838 20.2231 12.7C20.2411 13.149 20.2283 13.2491 20.1255 13.3773C19.9302 13.6263 19.501 13.5851 19.3546 13.3055C19.3083 13.2131 19.2955 13.1336 19.2801 12.7744C19.2544 12.2228 19.2159 11.8662 19.1388 11.4402C18.8356 9.76999 18.0338 8.43581 16.7542 7.47879C15.6878 6.67831 14.5854 6.2883 13.1414 6.20364C12.6531 6.17542 12.5683 6.1575 12.4578 6.07281C12.2522 5.91117 12.242 5.53146 12.4398 5.35443C12.5606 5.24409 12.6454 5.22869 13.0642 5.24152C13.2827 5.24921 13.6039 5.27488 13.7786 5.29541ZM7.90451 5.57251C7.99446 5.60329 8.13323 5.67512 8.21289 5.72644C8.70108 6.04973 10.0604 7.78667 10.5049 8.6539C10.7593 9.14907 10.8441 9.51597 10.7645 9.78793C10.6822 10.0804 10.5461 10.2344 9.93707 10.7244C9.69296 10.922 9.46423 11.1247 9.42828 11.1786C9.33577 11.312 9.26123 11.5737 9.26123 11.7584C9.26384 12.1869 9.54136 12.9643 9.90625 13.5621C10.1889 14.0265 10.6951 14.6217 11.1961 15.0784C11.7846 15.6173 12.3036 15.9841 12.8895 16.274C13.6424 16.6486 14.1024 16.7436 14.439 16.5871C14.5238 16.5486 14.6137 16.4972 14.642 16.4742C14.6677 16.4511 14.8655 16.2099 15.0814 15.9431C15.4976 15.4197 15.5927 15.335 15.878 15.2375C16.2403 15.1144 16.6103 15.1477 16.9829 15.3376C17.2655 15.4838 17.8822 15.8661 18.2805 16.1432C18.8047 16.5101 19.925 17.4235 20.0767 17.6057C20.3439 17.9341 20.3902 18.3548 20.2103 18.8192C20.0201 19.3093 19.2801 20.2278 18.7636 20.6204C18.2959 20.9744 17.9645 21.1104 17.5276 21.1309C17.1679 21.1489 17.0189 21.1181 16.5589 20.9282C12.9512 19.4427 10.0707 17.2259 7.78372 14.1804C6.58889 12.5897 5.67924 10.94 5.05737 9.22864C4.69509 8.23059 4.67712 7.79695 4.97516 7.28638C5.10367 7.07087 5.65098 6.5372 6.04926 6.23959C6.71223 5.74696 7.018 5.56479 7.26212 5.51349C7.42913 5.47756 7.71948 5.50579 7.90451 5.57251ZM13.9559 7.15552C15.5156 7.38385 16.7233 8.10742 17.5148 9.2825C17.9593 9.94445 18.2368 10.7218 18.3319 11.5557C18.3653 11.861 18.3653 12.4178 18.3293 12.5102C18.2959 12.5974 18.188 12.7154 18.0955 12.7641C17.9953 12.8155 17.782 12.8103 17.6638 12.7487C17.4659 12.6487 17.4069 12.4896 17.4069 12.0586C17.4069 11.3941 17.2347 10.6936 16.9366 10.1497C16.5975 9.52879 16.1041 9.01568 15.5028 8.65903C14.9863 8.35114 14.2232 8.12281 13.5268 8.06638C13.2749 8.04583 13.1362 7.99451 13.0411 7.88419C12.8947 7.7174 12.8792 7.49163 13.0026 7.30435C13.1362 7.09652 13.3417 7.06314 13.9559 7.15552ZM14.5032 9.09262C15.0094 9.20039 15.3974 9.39282 15.7289 9.70328C16.1555 10.1061 16.3893 10.5936 16.4921 11.294C16.5614 11.7507 16.5332 11.9303 16.3713 12.0791C16.2197 12.2176 15.9396 12.2228 15.77 12.0919C15.6467 11.9995 15.6081 11.9021 15.5799 11.6378C15.5465 11.2863 15.4848 11.04 15.3795 10.8116C15.1533 10.3267 14.755 10.0753 14.0818 9.99319C13.7657 9.9547 13.6707 9.91879 13.5679 9.79822C13.3803 9.575 13.4522 9.21323 13.7118 9.0798C13.8094 9.03106 13.8506 9.02593 14.0664 9.03876C14.2 9.04646 14.3979 9.06952 14.5032 9.09262Z" fill="#5157E0"/>
</svg>