<svg width="15" height="12" viewBox="0 0 15 12" fill="none" xmlns="http://www.w3.org/2000/svg">
<path d="M14.9887 4.92309C14.9314 5.18077 14.8913 5.43844 14.8169 5.69612C14.2843 7.61439 12.5149 8.9715 10.5222 8.9944C9.78356 9.00586 9.0506 8.98868 8.31193 9.00013C8.20885 9.00013 8.07715 9.05739 8.00271 9.13183C7.28694 9.83043 6.58262 10.5405 5.87257 11.2505C5.82676 11.2963 5.78095 11.3421 5.73514 11.3879C5.52327 11.5769 5.28277 11.6342 5.01937 11.5139C4.76742 11.3994 4.64144 11.1933 4.64144 10.9184C4.63572 10.3458 4.64144 9.77316 4.64144 9.20627C4.64144 9.12611 4.64144 9.05167 4.60136 9.02876C4.086 8.82262 3.54201 8.66801 3.06674 8.40461C1.40042 7.47696 0.50141 5.57015 0.839255 3.7664C1.2 1.81377 2.66018 0.365044 4.58991 0.0558303C4.83613 0.015747 5.08808 0.00429464 5.34004 0.00429464C7.02926 -0.00143155 8.71849 -0.00143155 10.4077 0.00429464C12.681 0.0100208 14.5134 1.53319 14.9371 3.76067C14.9543 3.86374 14.9772 3.96681 15.0001 4.07561C14.9887 4.35047 14.9887 4.63678 14.9887 4.92309ZM5.92411 9.37806C6.41656 8.88561 6.86893 8.43896 7.31557 7.9866C7.50453 7.79763 7.7164 7.70601 7.98553 7.71174C8.83874 7.71747 9.68621 7.72319 10.5394 7.71174C12.2515 7.68311 13.6774 6.25729 13.7003 4.55661C13.7232 2.78149 12.2859 1.29841 10.5051 1.28696C8.74712 1.27551 6.98345 1.28123 5.22551 1.28696C5.03655 1.28696 4.83613 1.30986 4.65289 1.34995C3.03238 1.68779 1.9215 3.17087 2.07611 4.77421C2.23644 6.4348 3.57065 7.67166 5.24269 7.71174C5.67216 7.72319 5.92983 7.98087 5.92983 8.41606C5.92983 8.71382 5.92411 9.01158 5.92411 9.37806Z" fill="#FC5A5A"/>
</svg>
