<svg width="103" height="103" viewBox="0 0 103 103" fill="none" xmlns="http://www.w3.org/2000/svg">
    <path d="M68.375 102.125H57.125V90.875H68.375V102.125ZM57.125 62.75H45.875V90.875H57.125V62.75ZM102.125 51.5H90.875V74H102.125V51.5ZM90.875 40.25H79.625V51.5H90.875V40.25ZM23.375 51.5H12.125V62.75H23.375V51.5ZM12.125 40.25H0.875V51.5H12.125V40.25ZM51.5 12.125H62.75V0.875H51.5V12.125ZM9.3125 9.3125V26.1875H26.1875V9.3125H9.3125ZM34.625 34.625H0.875V0.875H34.625V34.625ZM9.3125 76.8125V93.6875H26.1875V76.8125H9.3125ZM34.625 102.125H0.875V68.375H34.625V102.125ZM76.8125 9.3125V26.1875H93.6875V9.3125H76.8125ZM102.125 34.625H68.375V0.875H102.125V34.625ZM90.875 90.875V74H68.375V85.25H79.625V102.125H102.125V90.875H90.875ZM79.625 51.5H57.125V62.75H79.625V51.5ZM57.125 40.25H23.375V51.5H34.625V62.75H45.875V51.5H57.125V40.25ZM62.75 34.625V23.375H51.5V12.125H40.25V34.625H62.75ZM21.9688 13.5312H13.5312V21.9688H21.9688V13.5312ZM21.9688 81.0312H13.5312V89.4688H21.9688V81.0312ZM89.4688 13.5312H81.0312V21.9688H89.4688V13.5312Z" fill="black"/>
</svg>
