<svg width="90" height="185" viewBox="0 0 90 185" fill="none" xmlns="http://www.w3.org/2000/svg">
<path d="M0.0890262 57.0863L1.78042 55.5466C2.31455 56.1139 2.75965 56.7622 3.20475 57.4105L0.0890262 60.2467V57.0863Z" fill="white"/>
<path d="M0.0890262 68.1883L6.32048 62.5157C6.67656 63.2451 7.03265 63.9744 7.38873 64.7037L0.0890262 71.3487V68.1883Z" fill="white"/>
<path d="M0.0890262 79.3714L9.52523 70.7815C9.79229 71.5919 9.97033 72.4833 10.1484 73.3747L0.0890262 82.4508V79.3714Z" fill="white"/>
<path d="M0.0890262 90.4734L10.8605 80.668C10.8605 80.83 10.8605 81.0731 10.8605 81.2352C10.8605 82.1266 10.8605 83.018 10.7715 83.8284L0.0890262 93.5528V90.4734Z" fill="white"/>
<path d="M0.0890262 101.575L8.9911 93.4717C8.45698 95.0925 7.83383 96.7132 7.12167 98.3339L0.0890262 104.655V101.575Z" fill="white"/>
<path d="M0.0890262 3.76424L3.47182 0.684845H6.94362L0.0890262 6.92466V3.76424Z" fill="white"/>
<path d="M0.0890208 14.8662L15.6677 0.684845H19.0504L2.1365 16.0818C1.42433 15.7576 0.712166 15.5145 0 15.2714C0.0890208 15.2714 0.0890208 14.8662 0.0890208 14.8662Z" fill="white"/>
<path d="M8.01187 18.756L27.8635 0.684845H31.2463L10.1484 19.9715C9.4362 19.5664 8.72404 19.1612 8.01187 18.756Z" fill="white"/>
<path d="M15.4896 23.132L40.1484 0.684845H43.5312L17.4481 24.5096C16.7359 24.0234 16.1128 23.5372 15.4896 23.132Z" fill="white"/>
<path d="M22.1662 28.1562L52.3442 0.684845H52.7003C53.2344 1.17106 53.7686 1.57625 54.3027 2.06247L24.0356 29.6149C23.3234 29.1287 22.7893 28.6425 22.1662 28.1562Z" fill="white"/>
<path d="M28.2196 33.7478L58.5757 6.11429C59.1098 6.68155 59.6439 7.16777 60.1781 7.73502L29.822 35.4495C29.2878 34.8823 28.7537 34.315 28.2196 33.7478Z" fill="white"/>
<path d="M33.5608 39.9876L64.184 12.111C64.7181 12.6783 65.1632 13.2455 65.6973 13.8938L34.8962 41.8514C34.451 41.2031 34.0059 40.6359 33.5608 39.9876Z" fill="white"/>
<path d="M38.1899 46.8757L69.3472 18.5129C69.7923 19.1612 70.2374 19.7284 70.6825 20.3767L39.3472 48.9826C38.9911 48.2533 38.635 47.605 38.1899 46.8757Z" fill="white"/>
<path d="M42.0178 54.4931L74.0653 25.32C74.5104 25.9683 74.8665 26.6165 75.3116 27.3459L42.908 56.8432C42.641 56.0328 42.3739 55.3035 42.0178 54.4931Z" fill="white"/>
<path d="M44.9555 63.002L78.2493 32.6943C78.6053 33.4236 78.9614 34.0719 79.3175 34.8012L45.4896 65.5951C45.4006 64.7037 45.2225 63.8123 44.9555 63.002Z" fill="white"/>
<path d="M46.7359 72.4833L81.9881 40.3928C82.3442 41.1221 82.6113 41.9325 82.8783 42.6618L47.003 75.3195C47.003 74.3471 46.9139 73.3747 46.7359 72.4833Z" fill="white"/>
<path d="M47.092 83.2611L85.1039 48.6585C85.3709 49.4689 85.638 50.2792 85.9051 51.0896L46.914 86.5836C46.914 85.5302 47.003 84.3956 47.092 83.2611Z" fill="white"/>
<path d="M45.0445 96.227L87.5074 57.4915C87.6855 58.3829 87.8635 59.1933 88.0415 60.0847L43.7092 100.603C44.2433 99.1443 44.6884 97.6856 45.0445 96.227Z" fill="white"/>
<path d="M0.0890262 148.333L8.90208 140.311C13.2641 137.961 17.3591 135.287 21.1869 132.288L0.0890262 151.413V148.333ZM36.8546 114.865L89.1988 67.1348C89.2878 68.1073 89.4659 68.9987 89.5549 69.9711L28.0415 125.967C31.3353 122.564 34.273 118.836 36.8546 114.865Z" fill="white"/>
<path d="M0.0890262 159.436L90 77.5886C90 78.3179 90 79.0472 90 79.7765C90 80.1007 90 80.3438 90 80.6679L0.0890262 162.515V159.436Z" fill="white"/>
<path d="M0.0890262 170.538L89.5549 89.0147C89.4659 90.1492 89.2878 91.3648 89.1988 92.4993L0.0890262 173.617V170.538Z" fill="white"/>
<path d="M0.0890262 181.64L87.5074 102.062C87.2403 103.439 86.8843 104.736 86.5282 106.113L0.0890262 184.8V181.64Z" fill="white"/>
<path d="M12.0178 181.964L82.6113 117.702C81.8991 119.484 81.0979 121.186 80.2967 122.888L17.7151 179.857C15.8457 180.586 13.8872 181.315 12.0178 181.964Z" fill="white"/>
<path d="M37.0326 170.213L69.7033 140.473C61.0682 152.223 49.9407 162.353 37.0326 170.213Z" fill="white"/>
</svg>
